<svg width="18" height="18" viewBox="0 0 18 18" fill="none" xmlns="http://www.w3.org/2000/svg">
<path d="M5.83594 5.81982C6.72135 4.93441 7.78906 4.4917 9.03906 4.4917C10.2891 4.4917 11.3438 4.93441 12.2031 5.81982C13.0885 6.6792 13.5312 7.73389 13.5312 8.98389C13.5312 10.2339 13.0885 11.3016 12.2031 12.187C11.3438 13.0464 10.2891 13.4761 9.03906 13.4761C7.78906 13.4761 6.72135 13.0464 5.83594 12.187C4.97656 11.3016 4.54688 10.2339 4.54688 8.98389C4.54688 7.73389 4.97656 6.6792 5.83594 5.81982ZM6.96875 11.0542C7.54167 11.6271 8.23177 11.9136 9.03906 11.9136C9.84635 11.9136 10.5365 11.6271 11.1094 11.0542C11.6823 10.4813 11.9688 9.79118 11.9688 8.98389C11.9688 8.1766 11.6823 7.48649 11.1094 6.91357C10.5365 6.34066 9.84635 6.0542 9.03906 6.0542C8.23177 6.0542 7.54167 6.34066 6.96875 6.91357C6.39583 7.48649 6.10938 8.1766 6.10938 8.98389C6.10938 9.79118 6.39583 10.4813 6.96875 11.0542ZM14.4297 3.59326C14.638 3.77555 14.7422 4.00993 14.7422 4.29639C14.7422 4.58285 14.638 4.83024 14.4297 5.03857C14.2474 5.24691 14.013 5.35107 13.7266 5.35107C13.4401 5.35107 13.1927 5.24691 12.9844 5.03857C12.776 4.83024 12.6719 4.58285 12.6719 4.29639C12.6719 4.00993 12.776 3.77555 12.9844 3.59326C13.1927 3.38493 13.4401 3.28076 13.7266 3.28076C14.013 3.28076 14.2474 3.38493 14.4297 3.59326ZM17.75 5.39014C17.776 6.09326 17.7891 7.29118 17.7891 8.98389C17.7891 10.6766 17.776 11.8745 17.75 12.5776C17.6719 14.1662 17.1901 15.4032 16.3047 16.2886C15.4453 17.1479 14.2214 17.6037 12.6328 17.6558C11.9297 17.7078 10.7318 17.7339 9.03906 17.7339C7.34635 17.7339 6.14844 17.7078 5.44531 17.6558C3.85677 17.5776 2.63281 17.1089 1.77344 16.2495C1.4349 15.937 1.16146 15.5724 0.953125 15.1558C0.744792 14.7391 0.588542 14.3354 0.484375 13.9448C0.40625 13.5542 0.367188 13.0985 0.367188 12.5776C0.315104 11.8745 0.289062 10.6766 0.289062 8.98389C0.289062 7.29118 0.315104 6.08024 0.367188 5.35107C0.445312 3.78857 0.914062 2.57764 1.77344 1.71826C2.63281 0.832845 3.85677 0.351074 5.44531 0.272949C6.14844 0.246908 7.34635 0.233887 9.03906 0.233887C10.7318 0.233887 11.9297 0.246908 12.6328 0.272949C14.2214 0.351074 15.4453 0.832845 16.3047 1.71826C17.1901 2.57764 17.6719 3.8016 17.75 5.39014ZM15.875 14.1401C15.9531 13.9318 16.0182 13.6714 16.0703 13.3589C16.1224 13.0203 16.1615 12.6297 16.1875 12.187C16.2135 11.7183 16.2266 11.3407 16.2266 11.0542C16.2266 10.7677 16.2266 10.3641 16.2266 9.84326C16.2266 9.32243 16.2266 9.03597 16.2266 8.98389C16.2266 8.90576 16.2266 8.6193 16.2266 8.12451C16.2266 7.60368 16.2266 7.20003 16.2266 6.91357C16.2266 6.62712 16.2135 6.26253 16.1875 5.81982C16.1615 5.35107 16.1224 4.96045 16.0703 4.64795C16.0182 4.30941 15.9531 4.03597 15.875 3.82764C15.5625 3.02035 15.0026 2.46045 14.1953 2.14795C13.987 2.06982 13.7135 2.00472 13.375 1.95264C13.0625 1.90055 12.6719 1.86149 12.2031 1.83545C11.7604 1.80941 11.3958 1.79639 11.1094 1.79639C10.849 1.79639 10.4453 1.79639 9.89844 1.79639C9.3776 1.79639 9.09115 1.79639 9.03906 1.79639C8.98698 1.79639 8.70052 1.79639 8.17969 1.79639C7.65885 1.79639 7.25521 1.79639 6.96875 1.79639C6.68229 1.79639 6.30469 1.80941 5.83594 1.83545C5.39323 1.86149 5.0026 1.90055 4.66406 1.95264C4.35156 2.00472 4.09115 2.06982 3.88281 2.14795C3.07552 2.46045 2.51562 3.02035 2.20312 3.82764C2.125 4.03597 2.0599 4.30941 2.00781 4.64795C1.95573 4.96045 1.91667 5.35107 1.89062 5.81982C1.86458 6.26253 1.85156 6.62712 1.85156 6.91357C1.85156 7.17399 1.85156 7.57764 1.85156 8.12451C1.85156 8.64535 1.85156 8.9318 1.85156 8.98389C1.85156 9.08805 1.85156 9.33545 1.85156 9.72607C1.85156 10.0907 1.85156 10.4032 1.85156 10.6636C1.85156 10.8979 1.85156 11.2104 1.85156 11.6011C1.8776 11.9917 1.90365 12.3302 1.92969 12.6167C1.95573 12.8771 1.99479 13.1506 2.04688 13.437C2.09896 13.7235 2.15104 13.9578 2.20312 14.1401C2.54167 14.9474 3.10156 15.5073 3.88281 15.8198C4.09115 15.8979 4.35156 15.9631 4.66406 16.0151C5.0026 16.0672 5.39323 16.1063 5.83594 16.1323C6.30469 16.1584 6.66927 16.1714 6.92969 16.1714C7.21615 16.1714 7.61979 16.1714 8.14062 16.1714C8.6875 16.1714 8.98698 16.1714 9.03906 16.1714C9.11719 16.1714 9.40365 16.1714 9.89844 16.1714C10.4193 16.1714 10.8229 16.1714 11.1094 16.1714C11.3958 16.1714 11.7604 16.1584 12.2031 16.1323C12.6719 16.1063 13.0625 16.0672 13.375 16.0151C13.7135 15.9631 13.987 15.8979 14.1953 15.8198C15.0026 15.4813 15.5625 14.9214 15.875 14.1401Z" fill="white"/>
</svg>
