<svg width="528" height="28" viewBox="0 0 528 28" fill="none" xmlns="http://www.w3.org/2000/svg">
<path d="M4.70312 14.4766C4.26562 13.8385 3.76432 13.1185 3.19922 12.3164C2.65234 11.5143 2.26042 10.9492 2.02344 10.6211C1.78646 10.293 1.51302 9.89193 1.20312 9.41797C0.893229 8.92578 0.683594 8.57943 0.574219 8.37891C0.483073 8.17839 0.373698 7.92318 0.246094 7.61328C0.136719 7.30339 0.0638021 7.03906 0.0273438 6.82031C0.00911458 6.58333 0 6.3099 0 6C0 4.54167 0.510417 3.30208 1.53125 2.28125C2.55208 1.26042 3.79167 0.75 5.25 0.75C6.70833 0.75 7.94792 1.26042 8.96875 2.28125C9.98958 3.30208 10.5 4.54167 10.5 6C10.5 6.3099 10.4818 6.58333 10.4453 6.82031C10.4271 7.03906 10.3542 7.30339 10.2266 7.61328C10.1172 7.92318 10.0078 8.17839 9.89844 8.37891C9.80729 8.57943 9.60677 8.92578 9.29688 9.41797C8.98698 9.89193 8.71354 10.293 8.47656 10.6211C8.23958 10.9492 7.83854 11.5143 7.27344 12.3164C6.72656 13.1185 6.23438 13.8385 5.79688 14.4766C5.66927 14.6589 5.48698 14.75 5.25 14.75C5.01302 14.75 4.83073 14.6589 4.70312 14.4766ZM3.69141 7.55859C4.12891 7.97786 4.64844 8.1875 5.25 8.1875C5.85156 8.1875 6.36198 7.97786 6.78125 7.55859C7.21875 7.12109 7.4375 6.60156 7.4375 6C7.4375 5.39844 7.21875 4.88802 6.78125 4.46875C6.36198 4.03125 5.85156 3.8125 5.25 3.8125C4.64844 3.8125 4.12891 4.03125 3.69141 4.46875C3.27214 4.88802 3.0625 5.39844 3.0625 6C3.0625 6.60156 3.27214 7.12109 3.69141 7.55859ZM211.895 1.43359C212.241 1.50651 212.414 1.71615 212.414 2.0625C212.414 5.5625 211.174 8.55208 208.695 11.0312C206.216 13.5104 203.227 14.75 199.727 14.75C199.38 14.75 199.171 14.5768 199.098 14.2305L198.441 11.3867C198.35 11.0404 198.478 10.7943 198.824 10.6484L201.887 9.33594C202.178 9.20833 202.434 9.27214 202.652 9.52734L203.992 11.168C205.068 10.6758 206.016 10.0104 206.836 9.17188C207.674 8.33333 208.34 7.38542 208.832 6.32812L207.191 4.96094C206.936 4.76042 206.872 4.50521 207 4.19531L208.312 1.13281C208.458 0.804688 208.704 0.686198 209.051 0.777344L211.895 1.43359ZM527.242 5.97266C527.297 5.91797 527.352 5.90885 527.406 5.94531C527.479 5.98177 527.516 6.03646 527.516 6.10938V11.6875C527.516 12.0521 527.388 12.362 527.133 12.6172C526.878 12.8724 526.568 13 526.203 13H514.828C514.464 13 514.154 12.8724 513.898 12.6172C513.643 12.362 513.516 12.0521 513.516 11.6875V6.10938C513.516 6.03646 513.543 5.99089 513.598 5.97266C513.671 5.9362 513.734 5.9362 513.789 5.97266C514.391 6.42839 515.794 7.45833 518 9.0625C518.036 9.09896 518.155 9.19922 518.355 9.36328C518.574 9.52734 518.747 9.65495 518.875 9.74609C519.003 9.81901 519.167 9.91927 519.367 10.0469C519.568 10.1562 519.759 10.2383 519.941 10.293C520.142 10.3477 520.333 10.375 520.516 10.375C520.68 10.375 520.844 10.3568 521.008 10.3203C521.172 10.2656 521.327 10.2109 521.473 10.1562C521.618 10.0833 521.773 9.99219 521.938 9.88281C522.102 9.77344 522.238 9.68229 522.348 9.60938C522.457 9.51823 522.585 9.41797 522.73 9.30859C522.876 9.19922 522.977 9.11719 523.031 9.0625C525.182 7.51302 526.586 6.48307 527.242 5.97266ZM520.516 9.5C520.37 9.5 520.188 9.45443 519.969 9.36328C519.768 9.25391 519.604 9.16276 519.477 9.08984C519.349 8.9987 519.158 8.86198 518.902 8.67969C518.665 8.47917 518.538 8.37891 518.52 8.37891C516.296 6.75651 514.71 5.58073 513.762 4.85156C513.598 4.72396 513.516 4.55078 513.516 4.33203V3.8125C513.516 3.44792 513.643 3.13802 513.898 2.88281C514.154 2.6276 514.464 2.5 514.828 2.5H526.203C526.568 2.5 526.878 2.6276 527.133 2.88281C527.388 3.13802 527.516 3.44792 527.516 3.8125V4.33203C527.516 4.55078 527.434 4.72396 527.27 4.85156C526.376 5.54427 524.79 6.72005 522.512 8.37891C522.493 8.37891 522.357 8.47917 522.102 8.67969C521.865 8.86198 521.682 8.9987 521.555 9.08984C521.427 9.16276 521.254 9.25391 521.035 9.36328C520.835 9.45443 520.661 9.5 520.516 9.5Z" fill="#E8C300"/>
<path d="M23.4492 7.52734C24.2773 7.52734 24.9355 7.75977 25.4238 8.22461C25.916 8.68945 26.1621 9.32617 26.1621 10.1348C26.1621 11.0918 25.8672 11.8281 25.2773 12.3438C24.6875 12.8594 23.8438 13.1172 22.7461 13.1172C21.793 13.1172 21.0234 12.9629 20.4375 12.6543V11.0898C20.7461 11.2539 21.1055 11.3887 21.5156 11.4941C21.9258 11.5957 22.3145 11.6465 22.6816 11.6465C23.7871 11.6465 24.3398 11.1934 24.3398 10.2871C24.3398 9.42383 23.7676 8.99219 22.623 8.99219C22.416 8.99219 22.1875 9.01367 21.9375 9.05664C21.6875 9.0957 21.4844 9.13867 21.3281 9.18555L20.6074 8.79883L20.9297 4.43359H25.5762V5.96875H22.5176L22.3594 7.65039L22.5645 7.60938C22.8027 7.55469 23.0977 7.52734 23.4492 7.52734ZM30.4043 11.6934C30.7168 11.6934 31.0918 11.625 31.5293 11.4883V12.8184C31.084 13.0176 30.5371 13.1172 29.8887 13.1172C29.1738 13.1172 28.6523 12.9375 28.3242 12.5781C28 12.2148 27.8379 11.6719 27.8379 10.9492V7.79102H26.9824V7.03516L27.9668 6.4375L28.4824 5.05469H29.625V6.44922H31.459V7.79102H29.625V10.9492C29.625 11.2031 29.6953 11.3906 29.8359 11.5117C29.9805 11.6328 30.1699 11.6934 30.4043 11.6934ZM38.9062 13H37.1191V9.17383C37.1191 8.22852 36.7676 7.75586 36.0645 7.75586C35.5645 7.75586 35.2031 7.92578 34.9805 8.26562C34.7578 8.60547 34.6465 9.15625 34.6465 9.91797V13H32.8594V3.88281H34.6465V5.74023C34.6465 5.88477 34.6328 6.22461 34.6055 6.75977L34.5645 7.28711H34.6582C35.0566 6.64648 35.6895 6.32617 36.5566 6.32617C37.3262 6.32617 37.9102 6.5332 38.3086 6.94727C38.707 7.36133 38.9062 7.95508 38.9062 8.72852V13ZM44.0039 13V4.43359H45.8203V11.5H49.2949V13H44.0039ZM52.0723 9.71289C52.0723 10.3613 52.1777 10.8516 52.3887 11.1836C52.6035 11.5156 52.9512 11.6816 53.4316 11.6816C53.9082 11.6816 54.25 11.5176 54.457 11.1895C54.668 10.8574 54.7734 10.3652 54.7734 9.71289C54.7734 9.06445 54.668 8.57812 54.457 8.25391C54.2461 7.92969 53.9004 7.76758 53.4199 7.76758C52.9434 7.76758 52.5996 7.92969 52.3887 8.25391C52.1777 8.57422 52.0723 9.06055 52.0723 9.71289ZM56.6016 9.71289C56.6016 10.7793 56.3203 11.6133 55.7578 12.2148C55.1953 12.8164 54.4121 13.1172 53.4082 13.1172C52.7793 13.1172 52.2246 12.9805 51.7441 12.707C51.2637 12.4297 50.8945 12.0332 50.6367 11.5176C50.3789 11.002 50.25 10.4004 50.25 9.71289C50.25 8.64258 50.5293 7.81055 51.0879 7.2168C51.6465 6.62305 52.4316 6.32617 53.4434 6.32617C54.0723 6.32617 54.627 6.46289 55.1074 6.73633C55.5879 7.00977 55.957 7.40234 56.2148 7.91406C56.4727 8.42578 56.6016 9.02539 56.6016 9.71289ZM64.125 13H62.3379V9.17383C62.3379 8.70117 62.2539 8.34766 62.0859 8.11328C61.918 7.875 61.6504 7.75586 61.2832 7.75586C60.7832 7.75586 60.4219 7.92383 60.1992 8.25977C59.9766 8.5918 59.8652 9.14453 59.8652 9.91797V13H58.0781V6.44922H59.4434L59.6836 7.28711H59.7832C59.9824 6.9707 60.2559 6.73242 60.6035 6.57227C60.9551 6.4082 61.3535 6.32617 61.7988 6.32617C62.5605 6.32617 63.1387 6.5332 63.5332 6.94727C63.9277 7.35742 64.125 7.95117 64.125 8.72852V13ZM68.0391 13.1172C67.2695 13.1172 66.6641 12.8184 66.2227 12.2207C65.7852 11.623 65.5664 10.7949 65.5664 9.73633C65.5664 8.66211 65.7891 7.82617 66.2344 7.22852C66.6836 6.62695 67.3008 6.32617 68.0859 6.32617C68.9102 6.32617 69.5391 6.64648 69.9727 7.28711H70.0312C69.9414 6.79883 69.8965 6.36328 69.8965 5.98047V3.88281H71.6895V13H70.3184L69.9727 12.1504H69.8965C69.4902 12.7949 68.8711 13.1172 68.0391 13.1172ZM68.666 11.6934C69.123 11.6934 69.457 11.5605 69.668 11.2949C69.8828 11.0293 70 10.5781 70.0195 9.94141V9.74805C70.0195 9.04492 69.9102 8.54102 69.6914 8.23633C69.4766 7.93164 69.125 7.7793 68.6367 7.7793C68.2383 7.7793 67.9277 7.94922 67.7051 8.28906C67.4863 8.625 67.377 9.11523 67.377 9.75977C67.377 10.4043 67.4883 10.8887 67.7109 11.2129C67.9336 11.5332 68.252 11.6934 68.666 11.6934ZM74.9824 9.71289C74.9824 10.3613 75.0879 10.8516 75.2988 11.1836C75.5137 11.5156 75.8613 11.6816 76.3418 11.6816C76.8184 11.6816 77.1602 11.5176 77.3672 11.1895C77.5781 10.8574 77.6836 10.3652 77.6836 9.71289C77.6836 9.06445 77.5781 8.57812 77.3672 8.25391C77.1562 7.92969 76.8105 7.76758 76.3301 7.76758C75.8535 7.76758 75.5098 7.92969 75.2988 8.25391C75.0879 8.57422 74.9824 9.06055 74.9824 9.71289ZM79.5117 9.71289C79.5117 10.7793 79.2305 11.6133 78.668 12.2148C78.1055 12.8164 77.3223 13.1172 76.3184 13.1172C75.6895 13.1172 75.1348 12.9805 74.6543 12.707C74.1738 12.4297 73.8047 12.0332 73.5469 11.5176C73.2891 11.002 73.1602 10.4004 73.1602 9.71289C73.1602 8.64258 73.4395 7.81055 73.998 7.2168C74.5566 6.62305 75.3418 6.32617 76.3535 6.32617C76.9824 6.32617 77.5371 6.46289 78.0176 6.73633C78.498 7.00977 78.8672 7.40234 79.125 7.91406C79.3828 8.42578 79.5117 9.02539 79.5117 9.71289ZM87.0352 13H85.248V9.17383C85.248 8.70117 85.1641 8.34766 84.9961 8.11328C84.8281 7.875 84.5605 7.75586 84.1934 7.75586C83.6934 7.75586 83.332 7.92383 83.1094 8.25977C82.8867 8.5918 82.7754 9.14453 82.7754 9.91797V13H80.9883V6.44922H82.3535L82.5938 7.28711H82.6934C82.8926 6.9707 83.166 6.73242 83.5137 6.57227C83.8652 6.4082 84.2637 6.32617 84.709 6.32617C85.4707 6.32617 86.0488 6.5332 86.4434 6.94727C86.8379 7.35742 87.0352 7.95117 87.0352 8.72852V13ZM92.1328 4.43359H94.7988C96.0137 4.43359 96.8945 4.60742 97.4414 4.95508C97.9922 5.29883 98.2676 5.84766 98.2676 6.60156C98.2676 7.11328 98.1465 7.5332 97.9043 7.86133C97.666 8.18945 97.3477 8.38672 96.9492 8.45312V8.51172C97.4922 8.63281 97.8828 8.85938 98.1211 9.19141C98.3633 9.52344 98.4844 9.96484 98.4844 10.5156C98.4844 11.2969 98.2012 11.9062 97.6348 12.3438C97.0723 12.7812 96.3066 13 95.3379 13H92.1328V4.43359ZM93.9492 7.82617H95.0039C95.4961 7.82617 95.8516 7.75 96.0703 7.59766C96.293 7.44531 96.4043 7.19336 96.4043 6.8418C96.4043 6.51367 96.2832 6.2793 96.041 6.13867C95.8027 5.99414 95.4238 5.92188 94.9043 5.92188H93.9492V7.82617ZM93.9492 9.26758V11.5H95.1328C95.6328 11.5 96.002 11.4043 96.2402 11.2129C96.4785 11.0215 96.5977 10.7285 96.5977 10.334C96.5977 9.62305 96.0898 9.26758 95.0742 9.26758H93.9492ZM101.479 9.71289C101.479 10.3613 101.584 10.8516 101.795 11.1836C102.01 11.5156 102.357 11.6816 102.838 11.6816C103.314 11.6816 103.656 11.5176 103.863 11.1895C104.074 10.8574 104.18 10.3652 104.18 9.71289C104.18 9.06445 104.074 8.57812 103.863 8.25391C103.652 7.92969 103.307 7.76758 102.826 7.76758C102.35 7.76758 102.006 7.92969 101.795 8.25391C101.584 8.57422 101.479 9.06055 101.479 9.71289ZM106.008 9.71289C106.008 10.7793 105.727 11.6133 105.164 12.2148C104.602 12.8164 103.818 13.1172 102.814 13.1172C102.186 13.1172 101.631 12.9805 101.15 12.707C100.67 12.4297 100.301 12.0332 100.043 11.5176C99.7852 11.002 99.6562 10.4004 99.6562 9.71289C99.6562 8.64258 99.9355 7.81055 100.494 7.2168C101.053 6.62305 101.838 6.32617 102.85 6.32617C103.479 6.32617 104.033 6.46289 104.514 6.73633C104.994 7.00977 105.363 7.40234 105.621 7.91406C105.879 8.42578 106.008 9.02539 106.008 9.71289ZM112.125 13L111.885 12.1621H111.791C111.6 12.4668 111.328 12.7031 110.977 12.8711C110.625 13.0352 110.225 13.1172 109.775 13.1172C109.006 13.1172 108.426 12.9121 108.035 12.502C107.645 12.0879 107.449 11.4941 107.449 10.7207V6.44922H109.236V10.2754C109.236 10.748 109.32 11.1035 109.488 11.3418C109.656 11.5762 109.924 11.6934 110.291 11.6934C110.791 11.6934 111.152 11.5273 111.375 11.1953C111.598 10.8594 111.709 10.3047 111.709 9.53125V6.44922H113.496V13H112.125ZM117.158 13H115.371V3.88281H117.158V13ZM121.752 7.59766C121.373 7.59766 121.076 7.71875 120.861 7.96094C120.646 8.19922 120.523 8.53906 120.492 8.98047H123C122.992 8.53906 122.877 8.19922 122.654 7.96094C122.432 7.71875 122.131 7.59766 121.752 7.59766ZM122.004 13.1172C120.949 13.1172 120.125 12.8262 119.531 12.2441C118.938 11.6621 118.641 10.8379 118.641 9.77148C118.641 8.67383 118.914 7.82617 119.461 7.22852C120.012 6.62695 120.771 6.32617 121.74 6.32617C122.666 6.32617 123.387 6.58984 123.902 7.11719C124.418 7.64453 124.676 8.37305 124.676 9.30273V10.1699H120.451C120.471 10.6777 120.621 11.0742 120.902 11.3594C121.184 11.6445 121.578 11.7871 122.086 11.7871C122.48 11.7871 122.854 11.7461 123.205 11.6641C123.557 11.582 123.924 11.4512 124.307 11.2715V12.6543C123.994 12.8105 123.66 12.9258 123.305 13C122.949 13.0781 122.516 13.1172 122.004 13.1172ZM127.688 13L125.191 6.44922H127.061L128.326 10.1816C128.467 10.6543 128.555 11.1016 128.59 11.5234H128.625C128.645 11.1484 128.732 10.7012 128.889 10.1816L130.148 6.44922H132.018L129.521 13H127.688ZM137.121 13L136.775 12.1094H136.729C136.428 12.4883 136.117 12.752 135.797 12.9004C135.48 13.0449 135.066 13.1172 134.555 13.1172C133.926 13.1172 133.43 12.9375 133.066 12.5781C132.707 12.2188 132.527 11.707 132.527 11.043C132.527 10.3477 132.77 9.83594 133.254 9.50781C133.742 9.17578 134.477 8.99219 135.457 8.95703L136.594 8.92188V8.63477C136.594 7.9707 136.254 7.63867 135.574 7.63867C135.051 7.63867 134.436 7.79688 133.729 8.11328L133.137 6.90625C133.891 6.51172 134.727 6.31445 135.645 6.31445C136.523 6.31445 137.197 6.50586 137.666 6.88867C138.135 7.27148 138.369 7.85352 138.369 8.63477V13H137.121ZM136.594 9.96484L135.902 9.98828C135.383 10.0039 134.996 10.0977 134.742 10.2695C134.488 10.4414 134.361 10.7031 134.361 11.0547C134.361 11.5586 134.65 11.8105 135.229 11.8105C135.643 11.8105 135.973 11.6914 136.219 11.4531C136.469 11.2148 136.594 10.8984 136.594 10.5039V9.96484ZM143.871 6.32617C144.113 6.32617 144.314 6.34375 144.475 6.37891L144.34 8.05469C144.195 8.01562 144.02 7.99609 143.812 7.99609C143.242 7.99609 142.797 8.14258 142.477 8.43555C142.16 8.72852 142.002 9.13867 142.002 9.66602V13H140.215V6.44922H141.568L141.832 7.55078H141.92C142.123 7.18359 142.396 6.88867 142.74 6.66602C143.088 6.43945 143.465 6.32617 143.871 6.32617ZM147.738 13.1172C146.969 13.1172 146.363 12.8184 145.922 12.2207C145.484 11.623 145.266 10.7949 145.266 9.73633C145.266 8.66211 145.488 7.82617 145.934 7.22852C146.383 6.62695 147 6.32617 147.785 6.32617C148.609 6.32617 149.238 6.64648 149.672 7.28711H149.73C149.641 6.79883 149.596 6.36328 149.596 5.98047V3.88281H151.389V13H150.018L149.672 12.1504H149.596C149.189 12.7949 148.57 13.1172 147.738 13.1172ZM148.365 11.6934C148.822 11.6934 149.156 11.5605 149.367 11.2949C149.582 11.0293 149.699 10.5781 149.719 9.94141V9.74805C149.719 9.04492 149.609 8.54102 149.391 8.23633C149.176 7.93164 148.824 7.7793 148.336 7.7793C147.938 7.7793 147.627 7.94922 147.404 8.28906C147.186 8.625 147.076 9.11523 147.076 9.75977C147.076 10.4043 147.188 10.8887 147.41 11.2129C147.633 11.5332 147.951 11.6934 148.365 11.6934ZM155.01 11.7402C154.807 12.5293 154.463 13.4648 153.979 14.5469H152.689C152.943 13.5078 153.141 12.5273 153.281 11.6055H154.922L155.01 11.7402ZM166.969 4.43359V9.97656C166.969 10.6094 166.826 11.1641 166.541 11.6406C166.26 12.1172 165.852 12.4824 165.316 12.7363C164.781 12.9902 164.148 13.1172 163.418 13.1172C162.316 13.1172 161.461 12.8359 160.852 12.2734C160.242 11.707 159.938 10.9336 159.938 9.95312V4.43359H161.748V9.67773C161.748 10.3379 161.881 10.8223 162.146 11.1309C162.412 11.4395 162.852 11.5938 163.465 11.5938C164.059 11.5938 164.488 11.4395 164.754 11.1309C165.023 10.8184 165.158 10.3301 165.158 9.66602V4.43359H166.969ZM168.674 12.1621C168.674 11.834 168.762 11.5859 168.938 11.418C169.113 11.25 169.369 11.166 169.705 11.166C170.029 11.166 170.279 11.252 170.455 11.4238C170.635 11.5957 170.725 11.8418 170.725 12.1621C170.725 12.4707 170.635 12.7148 170.455 12.8945C170.275 13.0703 170.025 13.1582 169.705 13.1582C169.377 13.1582 169.123 13.0723 168.943 12.9004C168.764 12.7246 168.674 12.4785 168.674 12.1621ZM179.379 13H177.316L175.072 9.39062L174.305 9.94141V13H172.488V4.43359H174.305V8.35352L175.02 7.3457L177.34 4.43359H179.355L176.367 8.22461L179.379 13ZM180.064 12.1621C180.064 11.834 180.152 11.5859 180.328 11.418C180.504 11.25 180.76 11.166 181.096 11.166C181.42 11.166 181.67 11.252 181.846 11.4238C182.025 11.5957 182.115 11.8418 182.115 12.1621C182.115 12.4707 182.025 12.7148 181.846 12.8945C181.666 13.0703 181.416 13.1582 181.096 13.1582C180.768 13.1582 180.514 13.0723 180.334 12.9004C180.154 12.7246 180.064 12.4785 180.064 12.1621ZM312.521 9.41406H310.254V8.13086H312.521V5.8457H313.805V8.13086H316.072V9.41406H313.805V11.6699H312.521V9.41406ZM323.256 11.2246H322.225V13H320.455V11.2246H316.799V9.96484L320.555 4.43359H322.225V9.81836H323.256V11.2246ZM320.455 9.81836V8.36523C320.455 8.12305 320.465 7.77148 320.484 7.31055C320.504 6.84961 320.52 6.58203 320.531 6.50781H320.484C320.34 6.82812 320.166 7.14062 319.963 7.44531L318.393 9.81836H320.455ZM329.871 8.7168C329.871 10.2129 329.625 11.3203 329.133 12.0391C328.645 12.7578 327.891 13.1172 326.871 13.1172C325.883 13.1172 325.137 12.7461 324.633 12.0039C324.133 11.2617 323.883 10.166 323.883 8.7168C323.883 7.20508 324.127 6.0918 324.615 5.37695C325.104 4.6582 325.855 4.29883 326.871 4.29883C327.859 4.29883 328.605 4.67383 329.109 5.42383C329.617 6.17383 329.871 7.27148 329.871 8.7168ZM325.682 8.7168C325.682 9.76758 325.771 10.5215 325.951 10.9785C326.135 11.4316 326.441 11.6582 326.871 11.6582C327.293 11.6582 327.598 11.4277 327.785 10.9668C327.973 10.5059 328.066 9.75586 328.066 8.7168C328.066 7.66602 327.971 6.91211 327.779 6.45508C327.592 5.99414 327.289 5.76367 326.871 5.76367C326.445 5.76367 326.141 5.99414 325.957 6.45508C325.773 6.91211 325.682 7.66602 325.682 8.7168ZM334.752 13L337.969 5.96875H333.744V4.44531H339.891V5.58203L336.65 13H334.752ZM346.746 13H340.758V11.7402L342.908 9.56641C343.545 8.91406 343.961 8.46289 344.156 8.21289C344.352 7.95898 344.492 7.72461 344.578 7.50977C344.664 7.29492 344.707 7.07227 344.707 6.8418C344.707 6.49805 344.611 6.24219 344.42 6.07422C344.232 5.90625 343.98 5.82227 343.664 5.82227C343.332 5.82227 343.01 5.89844 342.697 6.05078C342.385 6.20312 342.059 6.41992 341.719 6.70117L340.734 5.53516C341.156 5.17578 341.506 4.92188 341.783 4.77344C342.061 4.625 342.363 4.51172 342.691 4.43359C343.02 4.35156 343.387 4.31055 343.793 4.31055C344.328 4.31055 344.801 4.4082 345.211 4.60352C345.621 4.79883 345.939 5.07227 346.166 5.42383C346.393 5.77539 346.506 6.17773 346.506 6.63086C346.506 7.02539 346.436 7.39648 346.295 7.74414C346.158 8.08789 345.943 8.44141 345.65 8.80469C345.361 9.16797 344.85 9.68555 344.115 10.3574L343.014 11.3945V11.4766H346.746V13ZM353.566 8.08984C353.566 9.77734 353.211 11.0371 352.5 11.8691C351.789 12.7012 350.713 13.1172 349.271 13.1172C348.764 13.1172 348.379 13.0898 348.117 13.0352V11.582C348.445 11.6641 348.789 11.7051 349.148 11.7051C349.754 11.7051 350.252 11.6172 350.643 11.4414C351.033 11.2617 351.332 10.9824 351.539 10.6035C351.746 10.2207 351.865 9.69531 351.896 9.02734H351.826C351.6 9.39453 351.338 9.65234 351.041 9.80078C350.744 9.94922 350.373 10.0234 349.928 10.0234C349.182 10.0234 348.594 9.78516 348.164 9.30859C347.734 8.82812 347.52 8.16211 347.52 7.31055C347.52 6.39258 347.779 5.66797 348.299 5.13672C348.822 4.60156 349.533 4.33398 350.432 4.33398C351.064 4.33398 351.617 4.48242 352.09 4.7793C352.566 5.07617 352.932 5.50781 353.186 6.07422C353.439 6.63672 353.566 7.30859 353.566 8.08984ZM350.467 5.78711C350.092 5.78711 349.799 5.91602 349.588 6.17383C349.377 6.43164 349.271 6.80273 349.271 7.28711C349.271 7.70117 349.367 8.0293 349.559 8.27148C349.75 8.51367 350.041 8.63477 350.432 8.63477C350.799 8.63477 351.113 8.51562 351.375 8.27734C351.637 8.03516 351.768 7.75781 351.768 7.44531C351.768 6.98047 351.645 6.58789 351.398 6.26758C351.156 5.94727 350.846 5.78711 350.467 5.78711ZM362.062 13H360.252V8.04297L360.27 7.22852L360.299 6.33789C359.998 6.63867 359.789 6.83594 359.672 6.92969L358.688 7.7207L357.814 6.63086L360.574 4.43359H362.062V13ZM370.096 6.34961C370.096 6.88477 369.934 7.33984 369.609 7.71484C369.285 8.08984 368.83 8.34766 368.244 8.48828V8.52344C368.936 8.60938 369.459 8.82031 369.814 9.15625C370.17 9.48828 370.348 9.9375 370.348 10.5039C370.348 11.3281 370.049 11.9707 369.451 12.4316C368.854 12.8887 368 13.1172 366.891 13.1172C365.961 13.1172 365.137 12.9629 364.418 12.6543V11.1133C364.75 11.2812 365.115 11.418 365.514 11.5234C365.912 11.6289 366.307 11.6816 366.697 11.6816C367.295 11.6816 367.736 11.5801 368.021 11.377C368.307 11.1738 368.449 10.8477 368.449 10.3984C368.449 9.99609 368.285 9.71094 367.957 9.54297C367.629 9.375 367.105 9.29102 366.387 9.29102H365.736V7.90234H366.398C367.062 7.90234 367.547 7.81641 367.852 7.64453C368.16 7.46875 368.314 7.16992 368.314 6.74805C368.314 6.09961 367.908 5.77539 367.096 5.77539C366.814 5.77539 366.527 5.82227 366.234 5.91602C365.945 6.00977 365.623 6.17188 365.268 6.40234L364.43 5.1543C365.211 4.5918 366.143 4.31055 367.225 4.31055C368.111 4.31055 368.811 4.49023 369.322 4.84961C369.838 5.20898 370.096 5.70898 370.096 6.34961ZM375.773 13H373.963V8.04297L373.98 7.22852L374.01 6.33789C373.709 6.63867 373.5 6.83594 373.383 6.92969L372.398 7.7207L371.525 6.63086L374.285 4.43359H375.773V13ZM381.211 9.36133C381.211 7.66602 381.568 6.4043 382.283 5.57617C383.002 4.74805 384.076 4.33398 385.506 4.33398C385.994 4.33398 386.377 4.36328 386.654 4.42188V5.86914C386.307 5.79102 385.963 5.75195 385.623 5.75195C385.002 5.75195 384.494 5.8457 384.1 6.0332C383.709 6.2207 383.416 6.49805 383.221 6.86523C383.025 7.23242 382.91 7.75391 382.875 8.42969H382.951C383.338 7.76562 383.957 7.43359 384.809 7.43359C385.574 7.43359 386.174 7.67383 386.607 8.1543C387.041 8.63477 387.258 9.29883 387.258 10.1465C387.258 11.0605 387 11.7852 386.484 12.3203C385.969 12.8516 385.254 13.1172 384.34 13.1172C383.707 13.1172 383.154 12.9707 382.682 12.6777C382.213 12.3848 381.85 11.957 381.592 11.3945C381.338 10.832 381.211 10.1543 381.211 9.36133ZM384.305 11.6699C384.691 11.6699 384.988 11.541 385.195 11.2832C385.402 11.0215 385.506 10.6504 385.506 10.1699C385.506 9.75195 385.408 9.42383 385.213 9.18555C385.021 8.94336 384.73 8.82227 384.34 8.82227C383.973 8.82227 383.658 8.94141 383.396 9.17969C383.139 9.41797 383.01 9.69531 383.01 10.0117C383.01 10.4766 383.131 10.8691 383.373 11.1895C383.619 11.5098 383.93 11.6699 384.305 11.6699ZM393.779 6.34961C393.779 6.88477 393.617 7.33984 393.293 7.71484C392.969 8.08984 392.514 8.34766 391.928 8.48828V8.52344C392.619 8.60938 393.143 8.82031 393.498 9.15625C393.854 9.48828 394.031 9.9375 394.031 10.5039C394.031 11.3281 393.732 11.9707 393.135 12.4316C392.537 12.8887 391.684 13.1172 390.574 13.1172C389.645 13.1172 388.82 12.9629 388.102 12.6543V11.1133C388.434 11.2812 388.799 11.418 389.197 11.5234C389.596 11.6289 389.99 11.6816 390.381 11.6816C390.979 11.6816 391.42 11.5801 391.705 11.377C391.99 11.1738 392.133 10.8477 392.133 10.3984C392.133 9.99609 391.969 9.71094 391.641 9.54297C391.312 9.375 390.789 9.29102 390.07 9.29102H389.42V7.90234H390.082C390.746 7.90234 391.23 7.81641 391.535 7.64453C391.844 7.46875 391.998 7.16992 391.998 6.74805C391.998 6.09961 391.592 5.77539 390.779 5.77539C390.498 5.77539 390.211 5.82227 389.918 5.91602C389.629 6.00977 389.307 6.17188 388.951 6.40234L388.113 5.1543C388.895 4.5918 389.826 4.31055 390.908 4.31055C391.795 4.31055 392.494 4.49023 393.006 4.84961C393.521 5.20898 393.779 5.70898 393.779 6.34961ZM395.83 13L399.047 5.96875H394.822V4.44531H400.969V5.58203L397.729 13H395.83ZM406.254 4.43359L403.061 13H401.438L404.631 4.43359H406.254ZM409.096 9.41406H406.828V8.13086H409.096V5.8457H410.379V8.13086H412.646V9.41406H410.379V11.6699H409.096V9.41406ZM419.83 11.2246H418.799V13H417.029V11.2246H413.373V9.96484L417.129 4.43359H418.799V9.81836H419.83V11.2246ZM417.029 9.81836V8.36523C417.029 8.12305 417.039 7.77148 417.059 7.31055C417.078 6.84961 417.094 6.58203 417.105 6.50781H417.059C416.914 6.82812 416.74 7.14062 416.537 7.44531L414.967 9.81836H417.029ZM426.445 8.7168C426.445 10.2129 426.199 11.3203 425.707 12.0391C425.219 12.7578 424.465 13.1172 423.445 13.1172C422.457 13.1172 421.711 12.7461 421.207 12.0039C420.707 11.2617 420.457 10.166 420.457 8.7168C420.457 7.20508 420.701 6.0918 421.189 5.37695C421.678 4.6582 422.43 4.29883 423.445 4.29883C424.434 4.29883 425.18 4.67383 425.684 5.42383C426.191 6.17383 426.445 7.27148 426.445 8.7168ZM422.256 8.7168C422.256 9.76758 422.346 10.5215 422.525 10.9785C422.709 11.4316 423.016 11.6582 423.445 11.6582C423.867 11.6582 424.172 11.4277 424.359 10.9668C424.547 10.5059 424.641 9.75586 424.641 8.7168C424.641 7.66602 424.545 6.91211 424.354 6.45508C424.166 5.99414 423.863 5.76367 423.445 5.76367C423.02 5.76367 422.715 5.99414 422.531 6.45508C422.348 6.91211 422.256 7.66602 422.256 8.7168ZM431.326 13L434.543 5.96875H430.318V4.44531H436.465V5.58203L433.225 13H431.326ZM443.32 13H437.332V11.7402L439.482 9.56641C440.119 8.91406 440.535 8.46289 440.73 8.21289C440.926 7.95898 441.066 7.72461 441.152 7.50977C441.238 7.29492 441.281 7.07227 441.281 6.8418C441.281 6.49805 441.186 6.24219 440.994 6.07422C440.807 5.90625 440.555 5.82227 440.238 5.82227C439.906 5.82227 439.584 5.89844 439.271 6.05078C438.959 6.20312 438.633 6.41992 438.293 6.70117L437.309 5.53516C437.73 5.17578 438.08 4.92188 438.357 4.77344C438.635 4.625 438.938 4.51172 439.266 4.43359C439.594 4.35156 439.961 4.31055 440.367 4.31055C440.902 4.31055 441.375 4.4082 441.785 4.60352C442.195 4.79883 442.514 5.07227 442.74 5.42383C442.967 5.77539 443.08 6.17773 443.08 6.63086C443.08 7.02539 443.01 7.39648 442.869 7.74414C442.732 8.08789 442.518 8.44141 442.225 8.80469C441.936 9.16797 441.424 9.68555 440.689 10.3574L439.588 11.3945V11.4766H443.32V13ZM444.129 9.36133C444.129 7.66602 444.486 6.4043 445.201 5.57617C445.92 4.74805 446.994 4.33398 448.424 4.33398C448.912 4.33398 449.295 4.36328 449.572 4.42188V5.86914C449.225 5.79102 448.881 5.75195 448.541 5.75195C447.92 5.75195 447.412 5.8457 447.018 6.0332C446.627 6.2207 446.334 6.49805 446.139 6.86523C445.943 7.23242 445.828 7.75391 445.793 8.42969H445.869C446.256 7.76562 446.875 7.43359 447.727 7.43359C448.492 7.43359 449.092 7.67383 449.525 8.1543C449.959 8.63477 450.176 9.29883 450.176 10.1465C450.176 11.0605 449.918 11.7852 449.402 12.3203C448.887 12.8516 448.172 13.1172 447.258 13.1172C446.625 13.1172 446.072 12.9707 445.6 12.6777C445.131 12.3848 444.768 11.957 444.51 11.3945C444.256 10.832 444.129 10.1543 444.129 9.36133ZM447.223 11.6699C447.609 11.6699 447.906 11.541 448.113 11.2832C448.32 11.0215 448.424 10.6504 448.424 10.1699C448.424 9.75195 448.326 9.42383 448.131 9.18555C447.939 8.94336 447.648 8.82227 447.258 8.82227C446.891 8.82227 446.576 8.94141 446.314 9.17969C446.057 9.41797 445.928 9.69531 445.928 10.0117C445.928 10.4766 446.049 10.8691 446.291 11.1895C446.537 11.5098 446.848 11.6699 447.223 11.6699ZM460.342 11.2246H459.311V13H457.541V11.2246H453.885V9.96484L457.641 4.43359H459.311V9.81836H460.342V11.2246ZM457.541 9.81836V8.36523C457.541 8.12305 457.551 7.77148 457.57 7.31055C457.59 6.84961 457.605 6.58203 457.617 6.50781H457.57C457.426 6.82812 457.252 7.14062 457.049 7.44531L455.479 9.81836H457.541ZM464.133 7.52734C464.961 7.52734 465.619 7.75977 466.107 8.22461C466.6 8.68945 466.846 9.32617 466.846 10.1348C466.846 11.0918 466.551 11.8281 465.961 12.3438C465.371 12.8594 464.527 13.1172 463.43 13.1172C462.477 13.1172 461.707 12.9629 461.121 12.6543V11.0898C461.43 11.2539 461.789 11.3887 462.199 11.4941C462.609 11.5957 462.998 11.6465 463.365 11.6465C464.471 11.6465 465.023 11.1934 465.023 10.2871C465.023 9.42383 464.451 8.99219 463.307 8.99219C463.1 8.99219 462.871 9.01367 462.621 9.05664C462.371 9.0957 462.168 9.13867 462.012 9.18555L461.291 8.79883L461.613 4.43359H466.26V5.96875H463.201L463.043 7.65039L463.248 7.60938C463.486 7.55469 463.781 7.52734 464.133 7.52734ZM470.824 4.32227C471.645 4.32227 472.305 4.50977 472.805 4.88477C473.309 5.25586 473.561 5.75781 473.561 6.39062C473.561 6.82812 473.439 7.21875 473.197 7.5625C472.955 7.90234 472.564 8.20703 472.025 8.47656C472.666 8.82031 473.125 9.17969 473.402 9.55469C473.684 9.92578 473.824 10.334 473.824 10.7793C473.824 11.4824 473.549 12.0488 472.998 12.4785C472.447 12.9043 471.723 13.1172 470.824 13.1172C469.887 13.1172 469.15 12.918 468.615 12.5195C468.08 12.1211 467.812 11.5566 467.812 10.8262C467.812 10.3379 467.941 9.9043 468.199 9.52539C468.461 9.14648 468.879 8.8125 469.453 8.52344C468.965 8.21484 468.613 7.88477 468.398 7.5332C468.184 7.18164 468.076 6.79688 468.076 6.37891C468.076 5.76562 468.33 5.26953 468.838 4.89062C469.346 4.51172 470.008 4.32227 470.824 4.32227ZM469.488 10.7207C469.488 11.0566 469.605 11.3184 469.84 11.5059C470.074 11.6934 470.395 11.7871 470.801 11.7871C471.25 11.7871 471.586 11.6914 471.809 11.5C472.031 11.3047 472.143 11.0488 472.143 10.7324C472.143 10.4707 472.031 10.2266 471.809 10C471.59 9.76953 471.232 9.52539 470.736 9.26758C469.904 9.65039 469.488 10.1348 469.488 10.7207ZM470.812 5.64648C470.504 5.64648 470.254 5.72656 470.062 5.88672C469.875 6.04297 469.781 6.25391 469.781 6.51953C469.781 6.75391 469.855 6.96484 470.004 7.15234C470.156 7.33594 470.43 7.52539 470.824 7.7207C471.207 7.54102 471.475 7.35742 471.627 7.16992C471.779 6.98242 471.855 6.76562 471.855 6.51953C471.855 6.25 471.758 6.03711 471.562 5.88086C471.367 5.72461 471.117 5.64648 470.812 5.64648ZM478.693 13L481.91 5.96875H477.686V4.44531H483.832V5.58203L480.592 13H478.693ZM487.652 4.32227C488.473 4.32227 489.133 4.50977 489.633 4.88477C490.137 5.25586 490.389 5.75781 490.389 6.39062C490.389 6.82812 490.268 7.21875 490.025 7.5625C489.783 7.90234 489.393 8.20703 488.854 8.47656C489.494 8.82031 489.953 9.17969 490.23 9.55469C490.512 9.92578 490.652 10.334 490.652 10.7793C490.652 11.4824 490.377 12.0488 489.826 12.4785C489.275 12.9043 488.551 13.1172 487.652 13.1172C486.715 13.1172 485.979 12.918 485.443 12.5195C484.908 12.1211 484.641 11.5566 484.641 10.8262C484.641 10.3379 484.77 9.9043 485.027 9.52539C485.289 9.14648 485.707 8.8125 486.281 8.52344C485.793 8.21484 485.441 7.88477 485.227 7.5332C485.012 7.18164 484.904 6.79688 484.904 6.37891C484.904 5.76562 485.158 5.26953 485.666 4.89062C486.174 4.51172 486.836 4.32227 487.652 4.32227ZM486.316 10.7207C486.316 11.0566 486.434 11.3184 486.668 11.5059C486.902 11.6934 487.223 11.7871 487.629 11.7871C488.078 11.7871 488.414 11.6914 488.637 11.5C488.859 11.3047 488.971 11.0488 488.971 10.7324C488.971 10.4707 488.859 10.2266 488.637 10C488.418 9.76953 488.061 9.52539 487.564 9.26758C486.732 9.65039 486.316 10.1348 486.316 10.7207ZM487.641 5.64648C487.332 5.64648 487.082 5.72656 486.891 5.88672C486.703 6.04297 486.609 6.25391 486.609 6.51953C486.609 6.75391 486.684 6.96484 486.832 7.15234C486.984 7.33594 487.258 7.52539 487.652 7.7207C488.035 7.54102 488.303 7.35742 488.455 7.16992C488.607 6.98242 488.684 6.76562 488.684 6.51953C488.684 6.25 488.586 6.03711 488.391 5.88086C488.195 5.72461 487.945 5.64648 487.641 5.64648ZM497.543 13H491.555V11.7402L493.705 9.56641C494.342 8.91406 494.758 8.46289 494.953 8.21289C495.148 7.95898 495.289 7.72461 495.375 7.50977C495.461 7.29492 495.504 7.07227 495.504 6.8418C495.504 6.49805 495.408 6.24219 495.217 6.07422C495.029 5.90625 494.777 5.82227 494.461 5.82227C494.129 5.82227 493.807 5.89844 493.494 6.05078C493.182 6.20312 492.855 6.41992 492.516 6.70117L491.531 5.53516C491.953 5.17578 492.303 4.92188 492.58 4.77344C492.857 4.625 493.16 4.51172 493.488 4.43359C493.816 4.35156 494.184 4.31055 494.59 4.31055C495.125 4.31055 495.598 4.4082 496.008 4.60352C496.418 4.79883 496.736 5.07227 496.963 5.42383C497.189 5.77539 497.303 6.17773 497.303 6.63086C497.303 7.02539 497.232 7.39648 497.092 7.74414C496.955 8.08789 496.74 8.44141 496.447 8.80469C496.158 9.16797 495.646 9.68555 494.912 10.3574L493.811 11.3945V11.4766H497.543V13ZM2.36133 23.7129C2.36133 24.3613 2.4668 24.8516 2.67773 25.1836C2.89258 25.5156 3.24023 25.6816 3.7207 25.6816C4.19727 25.6816 4.53906 25.5176 4.74609 25.1895C4.95703 24.8574 5.0625 24.3652 5.0625 23.7129C5.0625 23.0645 4.95703 22.5781 4.74609 22.2539C4.53516 21.9297 4.18945 21.7676 3.70898 21.7676C3.23242 21.7676 2.88867 21.9297 2.67773 22.2539C2.4668 22.5742 2.36133 23.0605 2.36133 23.7129ZM6.89062 23.7129C6.89062 24.7793 6.60938 25.6133 6.04688 26.2148C5.48438 26.8164 4.70117 27.1172 3.69727 27.1172C3.06836 27.1172 2.51367 26.9805 2.0332 26.707C1.55273 26.4297 1.18359 26.0332 0.925781 25.5176C0.667969 25.002 0.539062 24.4004 0.539062 23.7129C0.539062 22.6426 0.818359 21.8105 1.37695 21.2168C1.93555 20.623 2.7207 20.3262 3.73242 20.3262C4.36133 20.3262 4.91602 20.4629 5.39648 20.7363C5.87695 21.0098 6.24609 21.4023 6.50391 21.9141C6.76172 22.4258 6.89062 23.0254 6.89062 23.7129ZM11.9883 21.791H10.4414V27H8.6543V21.791H7.66992V20.9297L8.6543 20.4492V19.9688C8.6543 19.2227 8.83789 18.6777 9.20508 18.334C9.57227 17.9902 10.1602 17.8184 10.9688 17.8184C11.5859 17.8184 12.1348 17.9102 12.6152 18.0938L12.1582 19.4062C11.7988 19.293 11.4668 19.2363 11.1621 19.2363C10.9082 19.2363 10.7246 19.3125 10.6113 19.4648C10.498 19.6133 10.4414 19.8047 10.4414 20.0391V20.4492H11.9883V21.791ZM16.6348 21.791H15.0879V27H13.3008V21.791H12.3164V20.9297L13.3008 20.4492V19.9688C13.3008 19.2227 13.4844 18.6777 13.8516 18.334C14.2188 17.9902 14.8066 17.8184 15.6152 17.8184C16.2324 17.8184 16.7812 17.9102 17.2617 18.0938L16.8047 19.4062C16.4453 19.293 16.1133 19.2363 15.8086 19.2363C15.5547 19.2363 15.3711 19.3125 15.2578 19.4648C15.1445 19.6133 15.0879 19.8047 15.0879 20.0391V20.4492H16.6348V21.791ZM17.5664 18.7559C17.5664 18.1738 17.8906 17.8828 18.5391 17.8828C19.1875 17.8828 19.5117 18.1738 19.5117 18.7559C19.5117 19.0332 19.4297 19.25 19.2656 19.4062C19.1055 19.5586 18.8633 19.6348 18.5391 19.6348C17.8906 19.6348 17.5664 19.3418 17.5664 18.7559ZM19.4297 27H17.6426V20.4492H19.4297V27ZM23.9648 27.1172C21.9258 27.1172 20.9062 25.998 20.9062 23.7598C20.9062 22.6465 21.1836 21.7969 21.7383 21.2109C22.293 20.6211 23.0879 20.3262 24.123 20.3262C24.8809 20.3262 25.5605 20.4746 26.1621 20.7715L25.6348 22.1543C25.3535 22.041 25.0918 21.9492 24.8496 21.8789C24.6074 21.8047 24.3652 21.7676 24.123 21.7676C23.1934 21.7676 22.7285 22.4277 22.7285 23.748C22.7285 25.0293 23.1934 25.6699 24.123 25.6699C24.4668 25.6699 24.7852 25.625 25.0781 25.5352C25.3711 25.4414 25.6641 25.2969 25.957 25.1016V26.6309C25.668 26.8145 25.375 26.9414 25.0781 27.0117C24.7852 27.082 24.4141 27.1172 23.9648 27.1172ZM30.1934 21.5977C29.8145 21.5977 29.5176 21.7188 29.3027 21.9609C29.0879 22.1992 28.9648 22.5391 28.9336 22.9805H31.4414C31.4336 22.5391 31.3184 22.1992 31.0957 21.9609C30.873 21.7188 30.5723 21.5977 30.1934 21.5977ZM30.4453 27.1172C29.3906 27.1172 28.5664 26.8262 27.9727 26.2441C27.3789 25.6621 27.082 24.8379 27.082 23.7715C27.082 22.6738 27.3555 21.8262 27.9023 21.2285C28.4531 20.627 29.2129 20.3262 30.1816 20.3262C31.1074 20.3262 31.8281 20.5898 32.3438 21.1172C32.8594 21.6445 33.1172 22.373 33.1172 23.3027V24.1699H28.8926C28.9121 24.6777 29.0625 25.0742 29.3438 25.3594C29.625 25.6445 30.0195 25.7871 30.5273 25.7871C30.9219 25.7871 31.2949 25.7461 31.6465 25.6641C31.998 25.582 32.3652 25.4512 32.748 25.2715V26.6543C32.4355 26.8105 32.1016 26.9258 31.7461 27C31.3906 27.0781 30.957 27.1172 30.4453 27.1172ZM43.7988 22.5938C43.7988 23.1562 43.709 23.6719 43.5293 24.1406C43.3496 24.6055 43.0957 24.9707 42.7676 25.2363C42.4395 25.502 42.0586 25.6348 41.625 25.6348C41.3359 25.6348 41.0801 25.5664 40.8574 25.4297C40.6348 25.2891 40.4746 25.1055 40.377 24.8789H40.2832C39.8613 25.3828 39.3242 25.6348 38.6719 25.6348C37.9805 25.6348 37.4355 25.4277 37.0371 25.0137C36.6387 24.5957 36.4395 24.0254 36.4395 23.3027C36.4395 22.4785 36.7012 21.8145 37.2246 21.3105C37.748 20.8066 38.4316 20.5547 39.2754 20.5547C39.6113 20.5547 39.9805 20.5879 40.3828 20.6543C40.7891 20.7168 41.123 20.793 41.3848 20.8828L41.25 23.748C41.25 24.291 41.3984 24.5625 41.6953 24.5625C41.9453 24.5625 42.1445 24.3809 42.293 24.0176C42.4414 23.6504 42.5156 23.1719 42.5156 22.582C42.5156 21.9531 42.3848 21.3984 42.123 20.918C41.8613 20.4336 41.4922 20.0645 41.0156 19.8105C40.543 19.5566 40.002 19.4297 39.3926 19.4297C38.6035 19.4297 37.918 19.5918 37.3359 19.916C36.7539 20.2402 36.3066 20.709 35.9941 21.3223C35.6855 21.9316 35.5312 22.6367 35.5312 23.4375C35.5312 24.5156 35.8184 25.3438 36.3926 25.9219C36.9707 26.4961 37.8066 26.7832 38.9004 26.7832C39.3145 26.7832 39.7695 26.7383 40.2656 26.6484C40.7617 26.5547 41.25 26.4199 41.7305 26.2441V27.3691C40.8945 27.7246 39.9668 27.9023 38.9473 27.9023C37.4629 27.9023 36.3047 27.5117 35.4727 26.7305C34.6445 25.9492 34.2305 24.8633 34.2305 23.4727C34.2305 22.5078 34.4414 21.6328 34.8633 20.8477C35.2891 20.0586 35.8926 19.4414 36.6738 18.9961C37.459 18.5469 38.3613 18.3223 39.3809 18.3223C40.2402 18.3223 41.0078 18.498 41.6836 18.8496C42.3594 19.2012 42.8809 19.7012 43.248 20.3496C43.6152 20.998 43.7988 21.7461 43.7988 22.5938ZM37.7988 23.3262C37.7988 24.1504 38.1348 24.5625 38.8066 24.5625C39.1582 24.5625 39.4258 24.4395 39.6094 24.1934C39.793 23.9434 39.9043 23.5391 39.9434 22.9805L40.0195 21.6855C39.8203 21.6426 39.5957 21.6211 39.3457 21.6211C38.8574 21.6211 38.4766 21.7734 38.2031 22.0781C37.9336 22.3828 37.7988 22.7988 37.7988 23.3262ZM51.2051 27H49.418V23.1738C49.418 22.7012 49.3379 22.3477 49.1777 22.1133C49.0215 21.875 48.7734 21.7559 48.4336 21.7559C47.9766 21.7559 47.6445 21.9238 47.4375 22.2598C47.2305 22.5957 47.127 23.1484 47.127 23.918V27H45.3398V20.4492H46.7051L46.9453 21.2871H47.0449C47.2207 20.9863 47.4746 20.752 47.8066 20.584C48.1387 20.4121 48.5195 20.3262 48.9492 20.3262C49.9297 20.3262 50.5938 20.6465 50.9414 21.2871H51.0996C51.2754 20.9824 51.5332 20.7461 51.873 20.5781C52.2168 20.4102 52.6035 20.3262 53.0332 20.3262C53.7754 20.3262 54.3359 20.5176 54.7148 20.9004C55.0977 21.2793 55.2891 21.8887 55.2891 22.7285V27H53.4961V23.1738C53.4961 22.7012 53.416 22.3477 53.2559 22.1133C53.0996 21.875 52.8516 21.7559 52.5117 21.7559C52.0742 21.7559 51.7461 21.9121 51.5273 22.2246C51.3125 22.5371 51.2051 23.0332 51.2051 23.7129V27ZM57.0527 18.7559C57.0527 18.1738 57.377 17.8828 58.0254 17.8828C58.6738 17.8828 58.998 18.1738 58.998 18.7559C58.998 19.0332 58.916 19.25 58.752 19.4062C58.5918 19.5586 58.3496 19.6348 58.0254 19.6348C57.377 19.6348 57.0527 19.3418 57.0527 18.7559ZM58.916 27H57.1289V20.4492H58.916V27ZM66.8438 27H65.0566V23.1738C65.0566 22.7012 64.9727 22.3477 64.8047 22.1133C64.6367 21.875 64.3691 21.7559 64.002 21.7559C63.502 21.7559 63.1406 21.9238 62.918 22.2598C62.6953 22.5918 62.584 23.1445 62.584 23.918V27H60.7969V20.4492H62.1621L62.4023 21.2871H62.502C62.7012 20.9707 62.9746 20.7324 63.3223 20.5723C63.6738 20.4082 64.0723 20.3262 64.5176 20.3262C65.2793 20.3262 65.8574 20.5332 66.252 20.9473C66.6465 21.3574 66.8438 21.9512 66.8438 22.7285V27ZM70.7578 27.1172C69.9883 27.1172 69.3828 26.8184 68.9414 26.2207C68.5039 25.623 68.2852 24.7949 68.2852 23.7363C68.2852 22.6621 68.5078 21.8262 68.9531 21.2285C69.4023 20.627 70.0195 20.3262 70.8047 20.3262C71.6289 20.3262 72.2578 20.6465 72.6914 21.2871H72.75C72.6602 20.7988 72.6152 20.3633 72.6152 19.9805V17.8828H74.4082V27H73.0371L72.6914 26.1504H72.6152C72.209 26.7949 71.5898 27.1172 70.7578 27.1172ZM71.3848 25.6934C71.8418 25.6934 72.1758 25.5605 72.3867 25.2949C72.6016 25.0293 72.7188 24.5781 72.7383 23.9414V23.748C72.7383 23.0449 72.6289 22.541 72.4102 22.2363C72.1953 21.9316 71.8438 21.7793 71.3555 21.7793C70.957 21.7793 70.6465 21.9492 70.4238 22.2891C70.2051 22.625 70.0957 23.1152 70.0957 23.7598C70.0957 24.4043 70.207 24.8887 70.4297 25.2129C70.6523 25.5332 70.9707 25.6934 71.3848 25.6934ZM79.9219 20.3262C80.6953 20.3262 81.3008 20.6289 81.7383 21.2344C82.1758 21.8359 82.3945 22.6621 82.3945 23.7129C82.3945 24.7949 82.168 25.6328 81.7148 26.2266C81.2656 26.8203 80.6523 27.1172 79.875 27.1172C79.1055 27.1172 78.502 26.8379 78.0645 26.2793H77.9414L77.6426 27H76.2773V17.8828H78.0645V20.0039C78.0645 20.2734 78.041 20.7051 77.9941 21.2988H78.0645C78.4824 20.6504 79.1016 20.3262 79.9219 20.3262ZM79.3477 21.7559C78.9062 21.7559 78.584 21.8926 78.3809 22.166C78.1777 22.4355 78.0723 22.8828 78.0645 23.5078V23.7012C78.0645 24.4043 78.168 24.9082 78.375 25.2129C78.5859 25.5176 78.918 25.6699 79.3711 25.6699C79.7383 25.6699 80.0293 25.502 80.2441 25.166C80.4629 24.8262 80.5723 24.334 80.5723 23.6895C80.5723 23.0449 80.4629 22.5625 80.2441 22.2422C80.0254 21.918 79.7266 21.7559 79.3477 21.7559ZM85.6582 27H83.8711V17.8828H85.6582V27ZM87.4629 18.7559C87.4629 18.1738 87.7871 17.8828 88.4355 17.8828C89.084 17.8828 89.4082 18.1738 89.4082 18.7559C89.4082 19.0332 89.3262 19.25 89.1621 19.4062C89.002 19.5586 88.7598 19.6348 88.4355 19.6348C87.7871 19.6348 87.4629 19.3418 87.4629 18.7559ZM89.3262 27H87.5391V20.4492H89.3262V27ZM95.7773 25.0547C95.7773 25.7266 95.543 26.2383 95.0742 26.5898C94.6094 26.9414 93.9121 27.1172 92.9824 27.1172C92.5059 27.1172 92.0996 27.084 91.7637 27.0176C91.4277 26.9551 91.1133 26.8613 90.8203 26.7363V25.2598C91.1523 25.416 91.5254 25.5469 91.9395 25.6523C92.3574 25.7578 92.7246 25.8105 93.041 25.8105C93.6895 25.8105 94.0137 25.623 94.0137 25.248C94.0137 25.1074 93.9707 24.9941 93.8848 24.9082C93.7988 24.8184 93.6504 24.7188 93.4395 24.6094C93.2285 24.4961 92.9473 24.3652 92.5957 24.2168C92.0918 24.0059 91.7207 23.8105 91.4824 23.6309C91.248 23.4512 91.0762 23.2461 90.9668 23.0156C90.8613 22.7812 90.8086 22.4941 90.8086 22.1543C90.8086 21.5723 91.0332 21.123 91.4824 20.8066C91.9355 20.4863 92.5762 20.3262 93.4043 20.3262C94.1934 20.3262 94.9609 20.498 95.707 20.8418L95.168 22.1309C94.8398 21.9902 94.5332 21.875 94.248 21.7852C93.9629 21.6953 93.6719 21.6504 93.375 21.6504C92.8477 21.6504 92.584 21.793 92.584 22.0781C92.584 22.2383 92.668 22.377 92.8359 22.4941C93.0078 22.6113 93.3809 22.7852 93.9551 23.0156C94.4668 23.2227 94.8418 23.416 95.0801 23.5957C95.3184 23.7754 95.4941 23.9824 95.6074 24.2168C95.7207 24.4512 95.7773 24.7305 95.7773 25.0547ZM99.9316 25.6934C100.244 25.6934 100.619 25.625 101.057 25.4883V26.8184C100.611 27.0176 100.064 27.1172 99.416 27.1172C98.7012 27.1172 98.1797 26.9375 97.8516 26.5781C97.5273 26.2148 97.3652 25.6719 97.3652 24.9492V21.791H96.5098V21.0352L97.4941 20.4375L98.0098 19.0547H99.1523V20.4492H100.986V21.791H99.1523V24.9492C99.1523 25.2031 99.2227 25.3906 99.3633 25.5117C99.5078 25.6328 99.6973 25.6934 99.9316 25.6934ZM105.1 21.5977C104.721 21.5977 104.424 21.7188 104.209 21.9609C103.994 22.1992 103.871 22.5391 103.84 22.9805H106.348C106.34 22.5391 106.225 22.1992 106.002 21.9609C105.779 21.7188 105.479 21.5977 105.1 21.5977ZM105.352 27.1172C104.297 27.1172 103.473 26.8262 102.879 26.2441C102.285 25.6621 101.988 24.8379 101.988 23.7715C101.988 22.6738 102.262 21.8262 102.809 21.2285C103.359 20.627 104.119 20.3262 105.088 20.3262C106.014 20.3262 106.734 20.5898 107.25 21.1172C107.766 21.6445 108.023 22.373 108.023 23.3027V24.1699H103.799C103.818 24.6777 103.969 25.0742 104.25 25.3594C104.531 25.6445 104.926 25.7871 105.434 25.7871C105.828 25.7871 106.201 25.7461 106.553 25.6641C106.904 25.582 107.271 25.4512 107.654 25.2715V26.6543C107.342 26.8105 107.008 26.9258 106.652 27C106.297 27.0781 105.863 27.1172 105.352 27.1172ZM113.133 20.3262C113.375 20.3262 113.576 20.3438 113.736 20.3789L113.602 22.0547C113.457 22.0156 113.281 21.9961 113.074 21.9961C112.504 21.9961 112.059 22.1426 111.738 22.4355C111.422 22.7285 111.264 23.1387 111.264 23.666V27H109.477V20.4492H110.83L111.094 21.5508H111.182C111.385 21.1836 111.658 20.8887 112.002 20.666C112.35 20.4395 112.727 20.3262 113.133 20.3262ZM114.674 26.1621C114.674 25.834 114.762 25.5859 114.938 25.418C115.113 25.25 115.369 25.166 115.705 25.166C116.029 25.166 116.279 25.252 116.455 25.4238C116.635 25.5957 116.725 25.8418 116.725 26.1621C116.725 26.4707 116.635 26.7148 116.455 26.8945C116.275 27.0703 116.025 27.1582 115.705 27.1582C115.377 27.1582 115.123 27.0723 114.943 26.9004C114.764 26.7246 114.674 26.4785 114.674 26.1621ZM121.008 27.1172C118.969 27.1172 117.949 25.998 117.949 23.7598C117.949 22.6465 118.227 21.7969 118.781 21.2109C119.336 20.6211 120.131 20.3262 121.166 20.3262C121.924 20.3262 122.604 20.4746 123.205 20.7715L122.678 22.1543C122.396 22.041 122.135 21.9492 121.893 21.8789C121.65 21.8047 121.408 21.7676 121.166 21.7676C120.236 21.7676 119.771 22.4277 119.771 23.748C119.771 25.0293 120.236 25.6699 121.166 25.6699C121.51 25.6699 121.828 25.625 122.121 25.5352C122.414 25.4414 122.707 25.2969 123 25.1016V26.6309C122.711 26.8145 122.418 26.9414 122.121 27.0117C121.828 27.082 121.457 27.1172 121.008 27.1172ZM125.947 23.7129C125.947 24.3613 126.053 24.8516 126.264 25.1836C126.479 25.5156 126.826 25.6816 127.307 25.6816C127.783 25.6816 128.125 25.5176 128.332 25.1895C128.543 24.8574 128.648 24.3652 128.648 23.7129C128.648 23.0645 128.543 22.5781 128.332 22.2539C128.121 21.9297 127.775 21.7676 127.295 21.7676C126.818 21.7676 126.475 21.9297 126.264 22.2539C126.053 22.5742 125.947 23.0605 125.947 23.7129ZM130.477 23.7129C130.477 24.7793 130.195 25.6133 129.633 26.2148C129.07 26.8164 128.287 27.1172 127.283 27.1172C126.654 27.1172 126.1 26.9805 125.619 26.707C125.139 26.4297 124.77 26.0332 124.512 25.5176C124.254 25.002 124.125 24.4004 124.125 23.7129C124.125 22.6426 124.404 21.8105 124.963 21.2168C125.521 20.623 126.307 20.3262 127.318 20.3262C127.947 20.3262 128.502 20.4629 128.982 20.7363C129.463 21.0098 129.832 21.4023 130.09 21.9141C130.348 22.4258 130.477 23.0254 130.477 23.7129ZM137.818 27H136.031V23.1738C136.031 22.7012 135.951 22.3477 135.791 22.1133C135.635 21.875 135.387 21.7559 135.047 21.7559C134.59 21.7559 134.258 21.9238 134.051 22.2598C133.844 22.5957 133.74 23.1484 133.74 23.918V27H131.953V20.4492H133.318L133.559 21.2871H133.658C133.834 20.9863 134.088 20.752 134.42 20.584C134.752 20.4121 135.133 20.3262 135.562 20.3262C136.543 20.3262 137.207 20.6465 137.555 21.2871H137.713C137.889 20.9824 138.146 20.7461 138.486 20.5781C138.83 20.4102 139.217 20.3262 139.646 20.3262C140.389 20.3262 140.949 20.5176 141.328 20.9004C141.711 21.2793 141.902 21.8887 141.902 22.7285V27H140.109V23.1738C140.109 22.7012 140.029 22.3477 139.869 22.1133C139.713 21.875 139.465 21.7559 139.125 21.7559C138.688 21.7559 138.359 21.9121 138.141 22.2246C137.926 22.5371 137.818 23.0332 137.818 23.7129V27Z" fill="#333333" fill-opacity="0.5"/>
</svg>
