<svg width="20" height="18" viewBox="0 0 20 18" fill="none" xmlns="http://www.w3.org/2000/svg">
<path d="M17.9297 4.92139C17.9557 5.02555 17.9688 5.19482 17.9688 5.4292C17.9688 6.80941 17.7083 8.18962 17.1875 9.56982C16.6667 10.924 15.9245 12.174 14.9609 13.3198C14.0234 14.4396 12.7995 15.3511 11.2891 16.0542C9.77865 16.7573 8.11198 17.1089 6.28906 17.1089C3.9974 17.1089 1.90104 16.4969 0 15.2729C0.286458 15.299 0.611979 15.312 0.976562 15.312C2.8776 15.312 4.58333 14.7261 6.09375 13.5542C5.18229 13.5542 4.375 13.2938 3.67188 12.7729C2.99479 12.2261 2.52604 11.549 2.26562 10.7417C2.52604 10.7677 2.77344 10.7808 3.00781 10.7808C3.3724 10.7808 3.73698 10.7417 4.10156 10.6636C3.47656 10.5334 2.91667 10.2729 2.42188 9.88232C1.92708 9.4917 1.53646 9.02295 1.25 8.47607C0.963542 7.90316 0.820312 7.29118 0.820312 6.64014V6.56201C1.39323 6.90055 2.00521 7.08285 2.65625 7.10889C1.43229 6.27555 0.820312 5.12972 0.820312 3.67139C0.820312 2.94222 1.01562 2.25212 1.40625 1.60107C2.42188 2.87712 3.65885 3.89274 5.11719 4.64795C6.60156 5.40316 8.17708 5.81982 9.84375 5.89795C9.79167 5.58545 9.76562 5.27295 9.76562 4.96045C9.76562 3.84066 10.1562 2.87712 10.9375 2.06982C11.7448 1.26253 12.7083 0.858887 13.8281 0.858887C15.026 0.858887 16.0286 1.28857 16.8359 2.14795C17.7734 1.96566 18.6458 1.64014 19.4531 1.17139C19.1406 2.13493 18.5417 2.89014 17.6562 3.43701C18.4375 3.33285 19.2188 3.11149 20 2.77295C19.4271 3.60628 18.737 4.32243 17.9297 4.92139Z" fill="white"/>
</svg>
